<?xml version="1.0" encoding="UTF-8"?>
<!-- Created with Inkscape (http://www.inkscape.org/) -->
<svg width="300" height="300" version="1.1" viewBox="0 0 300.01 300.01" xmlns="http://www.w3.org/2000/svg">
 <g transform="matrix(1.3,0,0,-1.3,0,1333.3)">
  <g transform="translate(-899.19 74.95)" image-rendering="auto">
   <g transform="translate(7.3202 -2.3685)">
    <path transform="translate(1119.9 836.55)" d="m0 0c-40.3 6.3-79.5 19.5-105 31.7-14.8-38.8-43.4-80.3-73.2-108.9-1.6-1.4-0.3-3.8 2.3-1.9 63.8 44.2 130.4 65.4 176 74.2 2.5 0.5 2.5 4.2-0.1 4.9" fill="#8d173c" style="mix-blend-mode:normal"/>
    <path transform="translate(900.87 939.45)" d="m0 0c15.1-39.2 32.4-118.5-8.1-205.7-0.5-1.1 1-2.1 2.5-1.1 48.6 31.8 91 92.9 105 142.8-48.5 24.7-77.6 50.3-95.2 66.7-2.3 2.3-5.2-0.2-4.2-2.7" fill="#e42313"/>
   </g>
  </g>
 </g>
</svg>
