<?xml version="1.0" encoding="UTF-8"?>
<!-- Created with Inkscape (http://www.inkscape.org/) -->
<svg width="1500" height="300" version="1.1" viewBox="0 0 1500 300.01" xmlns="http://www.w3.org/2000/svg">
 <g transform="matrix(1.3,0,0,-1.3,0,1333.3)">
  <g transform="translate(0.8,75)" image-rendering="auto">
   <g transform="translate(7.3,-2.4)">
    <path transform="translate(1119.9,836.5)" d="M 0 0 c -40.3 6.3 -79.5 19.5 -105 31.7 c -14.8 -38.8 -43.4 -80.3 -73.2 -108.9 c -1.6 -1.4 -0.3 -3.8 2.3 -1.9 c 63.8 44.2 130.4 65.4 176 74.2 c 2.5 0.5 2.5 4.2 -0.1 4.9" fill="#8d173c" style="mix-blend-mode: normal"/>
    <path transform="translate(900.9,939.5)" d="M 0 0 c 15.1 -39.2 32.4 -118.5 -8.1 -205.7 c -0.5 -1.1 1 -2.1 2.5 -1.1 c 48.6 31.8 91 92.9 105 142.8 c -48.5 24.7 -77.6 50.3 -95.2 66.7 c -2.3 2.3 -5.2 -0.2 -4.2 -2.7" fill="#e42313"/>
   </g>
  </g>
  <g transform="translate(713.1,880.8)" clip-path="url(#clipPath16)" fill="#ffffff">
   <path d="M 0 0 h -32.3 v 73.5 c 0 0.6 -0.4 1 -1 1 h -15.6 c -0.6 0 -1 -0.5 -1 -1 v -88.1 c 0 -0.6 0.5 -1.1 1 -1.1 h 51.2 c 0.3 0 0.6 0.1 0.8 0.4 s 0.3 0.5 0.2 0.8 l -2.3 13.6 c -0.1 0.5 -0.5 0.9 -1 0.9 m 143.5 0.1 h -39.3 v 23.2 h 32.5 c 0.3 0 0.6 0.1 0.8 0.3 c 0.2 0.3 0.3 0.6 0.2 0.9 l -2.3 13.7 c -0.1 0.5 -0.5 0.9 -1 0.9 h -30.2 v 19.6 h 38.1 c 0.6 0 1 0.5 1 1.1 v 13.7 c 0 0.6 -0.5 1 -1 1 h -54.7 c -0.6 0 -1 -0.5 -1 -1 v -88.1 c 0 -0.6 0.4 -1.1 1 -1.1 h 55.9 c 0.6 0 1 0.5 1 1.1 v 13.7 c 0 0.5 -0.4 1 -1 1 m -74.8 -0.1 h -32.4 v 73.5 c 0 0.6 -0.5 1 -1 1 h -15.7 c -0.6 0 -1 -0.5 -1 -1 v -88.1 c 0 -0.6 0.5 -1.1 1 -1.1 h 51.3 c 0.3 0 0.6 0.1 0.8 0.4 s 0.3 0.5 0.2 0.8 l -2.2 13.6 c -0.1 0.5 -0.5 0.9 -1 0.9 m -143.1 0.1 h -39.3 v 23.2 h 32.5 c 0.3 0 0.6 0.1 0.8 0.3 c 0.2 0.3 0.3 0.6 0.2 0.9 l -2.3 13.7 c -0.1 0.5 -0.5 0.9 -1 0.9 h -30.3 v 19.6 h 38 c 0.6 0 1.1 0.5 1.1 1.1 v 13.7 c 0 0.6 -0.5 1 -1.1 1 h -54.7 c -0.6 0 -1 -0.5 -1 -1 v -88.1 c 0 -0.6 0.5 -1.1 1 -1.1 h 56.1 c 0.6 0 1 0.5 1 1.1 v 13.7 c 0 0.5 -0.4 1 -1 1 m -86.7 74.4 h -15.8 c -0.6 0 -1.1 -0.5 -1.1 -1 v -88.1 c 0 -0.6 0.5 -1.1 1.1 -1.1 h 15.8 c 0.6 0 1.1 0.5 1.1 1.1 v 88.1 c 0 0.5 -0.5 1 -1.1 1 m -34.2 -0.1 h -15.8 c -0.5 0 -0.9 -0.3 -1 -0.7 l -24.7 -66 l -24.3 66 c -0.1 0.4 -0.6 0.7 -1 0.7 h -17.2 c -0.3 -0.1 -0.6 -0.3 -0.7 -0.5 c -0.1 -0.3 -0.2 -0.6 -0.1 -0.9 l 34.4 -88.1 c 0.2 -0.4 0.5 -0.6 0.9 -0.6 h 14.5 c 0.4 0 0.8 0.2 0.9 0.6 l 35.1 88.1 c 0.1 0.3 0.1 0.7 -0.1 1 c -0.2 0.2 -0.6 0.4 -0.9 0.4 m -112.5 -53.1 c 11.5 4.4 17.8 13.4 17.8 25.5 c 0 17.7 -12.8 28.2 -34.2 28.2 h -27.3 c -0.6 0 -1 -0.5 -1 -1 v -88.1 c 0 -0.6 0.4 -1.1 1 -1.1 h 15.7 c 0.6 0 1 0.5 1 1.1 v 33 h 8 l 24.3 -34.7 c 0.2 -0.3 0.5 -0.4 0.9 -0.4 h 0.2 l 16.2 3.7 c 0.3 0.1 0.6 0.3 0.7 0.6 c 0.1 0.4 0.1 0.7 -0.1 1 z m 0.1 25.4 c 0 -8.7 -5.9 -13.6 -16.7 -13.6 h -10.4 v 26.2 h 10.4 c 7.6 0 16.7 -2.2 16.7 -12.7 m -65.1 -46.5 h -39.3 v 23.2 h 32.5 c 0.3 0 0.6 0.1 0.8 0.3 c 0.2 0.3 0.3 0.6 0.2 0.9 l -2.2 13.7 c -0.1 0.5 -0.5 0.9 -1.1 0.9 h -30.2 v 19.6 h 38.1 c 0.6 0 1 0.5 1 1.1 v 13.7 c 0 0.6 -0.5 1 -1 1 h -54.8 c -0.6 0 -1 -0.5 -1 -1 v -88.1 c 0 -0.6 0.5 -1.1 1 -1.1 h 56 c 0.6 0 1 0.5 1 1.1 v 13.7 c 0 0.5 -0.4 1 -1 1 m -106.8 74.4 h -28.7 c -0.6 0 -1 -0.5 -1 -1 v -88.1 c 0 -0.6 0.4 -1.1 1 -1.1 h 15.7 c 0.6 0 1 0.5 1 1.1 v 32.7 h 10.1 c 21.9 0 34.4 10.4 34.4 28.5 c 0 17.2 -12.5 27.9 -32.5 27.9 m -1.9 -41.4 h -10.1 v 26.1 h 10.4 c 7.6 0 16.7 -2.3 16.7 -13 c 0 -8.8 -5.5 -13.1 -17 -13.1 m -52.9 42.3 h -15.8 c -0.6 0 -1 -0.5 -1 -1 v -53.6 c 0 -14.3 -6.7 -21.9 -19.5 -21.9 c -12.4 0 -19.3 7.9 -19.3 22.3 v 53.2 c 0 0.6 -0.5 1 -1.1 1 h -15.6 c -0.6 0 -1 -0.5 -1 -1 v -53.9 c 0 -23.2 13.8 -37 36.8 -37 c 23.5 0 37.6 14.1 37.6 37.7 v 53.2 c 0 0.5 -0.5 1 -1.1 1 m -117.5 -37 c -13.8 4.8 -17.9 7 -17.9 12.9 c 0 5.4 5.8 9.4 13.6 9.4 c 7.3 0 14.9 -2.1 23.3 -6.5 c 0.1 -0.1 0.3 -0.1 0.5 -0.1 s 0.4 0 0.5 0.1 c 0.3 0.1 0.5 0.4 0.6 0.8 l 2.3 14.4 c 0.1 0.5 -0.2 0.9 -0.6 1.1 c -7.6 3.4 -16.9 5.3 -26 5.3 c -18 0 -30.6 -10.9 -30.6 -26.4 c 0 -14.3 9.6 -20.3 28.5 -26.9 c 12.5 -4.3 16.7 -6.8 16.7 -13.4 c 0 -6.7 -6.3 -11 -16.1 -11 c -8.1 0 -19.2 3 -28.2 7.7 c -0.2 0.1 -0.3 0.1 -0.5 0.1 s -0.3 0 -0.5 -0.1 c -0.3 -0.2 -0.5 -0.5 -0.6 -0.8 l -2.3 -14.1 c -0.1 -0.5 0.2 -0.9 0.6 -1.1 c 10.2 -4.3 21.1 -6.7 30.6 -6.7 c 20 0 33.4 11.2 33.4 27.8 c 0 15.1 -9.6 21.3 -27.3 27.5" fill="#ffffff"/>
  </g>
 </g>
</svg>
