<svg width="64" height="38" fill="#ffffff" version="1.1" viewBox="0 0 32 19" xmlns="http://www.w3.org/2000/svg">
 <g id="SVGRepo_iconCarrier" transform="translate(0,-6.497)">
  <title>visa</title>
  <path d="m15.854 11.329-2.003 9.367h-2.424l2.006-9.367zm10.197 6.048 1.275-3.518 0.735 3.518zm2.703 3.319h2.242l-1.956-9.367h-2.069-0.01c-0.459 0-0.853 0.281-1.019 0.68l-3e-3 7e-3 -3.635 8.68h2.544l0.506-1.4h3.109zm-6.325-3.058c0.01-2.473-3.419-2.609-3.395-3.714 8e-3 -0.336 0.327-0.694 1.027-0.785 0.13-0.013 0.28-0.021 0.432-0.021 0.711 0 1.385 0.162 1.985 0.452l-0.027-0.012 0.425-1.987c-0.673-0.261-1.452-0.413-2.266-0.416h-1e-3c-2.396 0-4.081 1.275-4.096 3.098-0.015 1.348 1.203 2.099 2.122 2.549 0.945 0.459 1.262 0.754 1.257 1.163-6e-3 0.63-0.752 0.906-1.45 0.917-0.032 1e-3 -0.071 1e-3 -0.109 1e-3 -0.871 0-1.691-0.219-2.407-0.606l0.027 0.013-0.439 2.052c0.786 0.315 1.697 0.497 2.651 0.497h0.045-2e-3c2.546 0 4.211-1.257 4.22-3.204zm-10.038-6.309-3.926 9.367h-2.562l-1.932-7.477c-0.037-0.364-0.26-0.668-0.57-0.82l-6e-3 -3e-3c-0.688-0.338-1.488-0.613-2.325-0.786l-0.066-0.011 0.058-0.271h4.124 1e-3c0.562 0 1.028 0.411 1.115 0.948l1e-3 6e-3 1.021 5.421 2.522-6.376z"/>
 </g>
</svg>
