<svg class="icon" width="60" height="60" version="1.1" viewBox="0 0 76.8 76.8" xmlns="http://www.w3.org/2000/svg">
 <g transform="translate(0,8.96)" stroke-width=".093576">
  <path d="m0 51.2v-43.52c0-4.338 3.2337-7.68 7.68-7.68h61.44c4.4463 0 7.68 3.342 7.68 7.68v43.52c0 4.338-3.2337 7.68-7.68 7.68h-61.44c-4.4463 0-7.68-3.342-7.68-7.68z" fill="#ffdb7a"/>
  <path d="m18.56 7.68c-0.35346 0-0.64 0.28654-0.64 0.64s0.28654 0.64 0.64 0.64h5.76c3.5346 0 6.4 2.8654 6.4 6.4s-2.8654 6.4-6.4 6.4h-24.32v1.28h16.64v12.8h-16.64v1.28h24.32c3.5096 0 6.4 2.8254 6.4 6.36-0.0048 3.4825-2.9182 6.372-6.4 6.44h-5.76c-0.35346 0-0.64 0.28654-0.64 0.64s0.28654 0.64 0.64 0.64h5.76c3.549-0.0085 6.63-2.4477 7.4525-5.9 0.04606-0.15545 0.07225-0.31883 0.105-0.48 0.01612-0.07477 0.03112-0.14978 0.045-0.225 0.05555-0.34738 0.09108-0.70234 0.0775-1.075 0-4.2415-3.4385-7.68-7.68-7.68h-6.4v-12.8h6.4c4.2415 0 7.68-3.4385 7.68-7.68s-3.4385-7.68-7.68-7.68h-5.7275zm33.92 0c-4.2415 0-7.68 3.4385-7.68 7.68s3.4385 7.68 7.68 7.68h6.4v12.8h-6.4c-4.2415 0-7.68 3.4385-7.68 7.68s3.4385 7.68 7.68 7.68h5.76a0.64 0.64 0 0 0 0.64-0.64 0.64 0.64 0 0 0-0.64-0.64h-5.76c-3.5346 0-6.4-2.8654-6.4-6.4 0.0051-3.2541 2.4512-5.9865 5.685-6.35 0.21084-0.03129 0.44498-0.05 0.715-0.05h24.32v-1.28h-16.64v-12.8h16.64v-1.28h-24.32c-3.5346 0-6.4-2.8654-6.4-6.4s2.8654-6.4 6.4-6.4h5.76c0.35346 0 0.64-0.28654 0.64-0.64s-0.28654-0.64-0.64-0.64z" fill="#aa8c52"/>
 </g>
</svg>
